<svg xmlns="http://www.w3.org/2000/svg" height="40" width="40"><path d="M14.708 25.833 19 18.417Q19.333 17.792 19.479 17.167Q19.625 16.542 19.625 15.833Q19.625 14.708 18.708 13.375Q17.792 12.042 14.792 10.5L17.167 6.375Q17.75 5.292 18.875 4.667Q20 4.042 21.208 4.042Q21.875 4.042 22.458 4.188Q23.042 4.333 23.583 4.667L31.625 9.333Q30.25 9.5 28.792 10.479Q27.333 11.458 26.5 12.958L19.417 25.25Q18.667 26.542 17.292 26.667Q15.917 26.792 14.708 25.833ZM11.583 32.708 3.542 28.042Q2.333 27.375 1.75 26.271Q1.167 25.167 1.167 23.958Q1.167 23.333 1.333 22.75Q1.5 22.167 1.792 21.667L7.5 11.75Q7.917 11.042 8.583 10.688Q9.25 10.333 10.042 10.333Q10.333 10.333 10.667 10.417Q11 10.5 11.375 10.708L16.333 13.583Q16.958 13.958 17.354 14.604Q17.75 15.25 17.75 15.833Q17.75 16.25 17.688 16.667Q17.625 17.083 17.417 17.458L12.167 26.5Q11.333 27.833 11.208 29.479Q11.083 31.125 11.583 32.708ZM13.042 30.375Q13.042 29.583 13.188 28.854Q13.333 28.125 13.792 27.458Q14.625 27.917 15.333 28.229Q16.042 28.542 16.792 28.542Q17.875 28.542 19.042 28.042Q20.208 27.542 21.042 26.167L28.208 13.875Q30.333 14.917 31.083 16.854Q31.833 18.792 30.708 20.75L23.625 33.125Q23 34.208 21.521 35.083Q20.042 35.958 18.75 35.958Q16.417 35.958 14.729 34.396Q13.042 32.833 13.042 30.375ZM28.083 29.167 32.417 21.708Q32.875 20.792 33.062 19.958Q33.25 19.125 33.25 18.167Q33.25 16.833 32.354 15.042Q31.458 13.25 29.375 12.375Q29.917 11.917 30.917 11.458Q31.917 11 33.167 11Q35.5 11 37.125 12.688Q38.75 14.375 38.75 16.708Q38.75 17.5 38.583 18.167Q38.417 18.833 38 19.542L32.792 28.583Q32.375 29.25 31.771 29.646Q31.167 30.042 30.375 30.042Q29.917 30.042 29.417 29.896Q28.917 29.75 28.083 29.167Z"/></svg>